<?xml version="1.0" encoding="utf-8"?>
<!-- Generator: Adobe Illustrator 16.0.0, SVG Export Plug-In . SVG Version: 6.00 Build 0)  -->
<!DOCTYPE svg PUBLIC "-//W3C//DTD SVG 1.1//EN" "http://www.w3.org/Graphics/SVG/1.1/DTD/svg11.dtd">
<svg version="1.1" id="Logo" xmlns="http://www.w3.org/2000/svg" xmlns:xlink="http://www.w3.org/1999/xlink" x="0px" y="0px"
	 width="595.276px" height="396.85px" viewBox="0 0 595.276 396.85" enable-background="new 0 0 595.276 396.85"
	 xml:space="preserve">
<path d="M87.306,90.495h43.329c23.355,0,35.035,7.914,35.035,23.738c0,6.006-0.644,10.631-1.931,13.871
	c-1.287,3.242-3.933,6.292-7.937,9.152c4.67,2.002,7.887,4.458,9.652,7.364c1.763,2.909,2.646,7.747,2.646,14.515
	c0,18.114-12.298,27.17-36.894,27.17h-43.9V90.495z M127.774,112.374h-7.293v15.301h7.436c2.86,0,4.862-0.619,6.006-1.859
	c1.144-1.238,1.716-3.218,1.716-5.935c0-2.717-0.621-4.647-1.859-5.792C132.54,112.946,130.538,112.374,127.774,112.374z
	 M128.203,148.41h-7.722v15.73h7.722c3.336,0,5.577-0.547,6.721-1.645c1.144-1.095,1.716-3.146,1.716-6.149
	s-0.621-5.077-1.859-6.221C133.541,148.981,131.349,148.41,128.203,148.41z"/>
<path d="M175.292,109.514V87.635h32.318v21.879H175.292z M175.435,186.305V114.09h32.032v72.215H175.435z"/>
<path d="M248.993,186.305h-32.032V114.09h31.889v3.718c6.006-3.718,11.248-5.577,15.73-5.577c10.296,0,17.493,2.789,21.593,8.366
	c4.098,5.577,6.149,15.422,6.149,29.529v36.179H260.29v-34.034c0-8.294-1.716-12.441-5.148-12.441l-6.149,1.001V186.305z"/>
<path d="M413.81,186.305h-32.031V114.09h32.031v8.494c4.66-6.282,10.13-10.354,15.158-10.354v29.744
	c-3.918,0-7.436,1.787-12.584,4.361l-2.574,1.287V186.305z"/>
<path d="M446.271,186.305l-12.156-72.215h34.035l5.146,45.474h2.002l4.576-45.474h32.176l-17.018,100.099h-35.178l9.01-27.884
	H446.271z"/>
<path d="M151.655,305.96H87.306v-95.809h33.176v68.781h31.173V305.96z"/>
<path d="M286.959,231.886c18.875,0,28.313,12.252,28.313,36.752c0,14.682-2.813,24.881-8.437,30.602
	c-5.626,5.721-15.873,8.58-30.745,8.58c-6.102,0-15.969-0.811-29.601-2.432l-6.435-0.857v-97.24h32.032v26.885
	C278.379,232.652,283.334,231.886,286.959,231.886z M276.663,281.937c4.194,0,6.292-4.193,6.292-12.584
	c0-4.48-0.479-7.529-1.43-9.152c-0.954-1.619-2.574-2.432-4.862-2.432l-4.576,1.002v22.736
	C273.325,281.794,274.851,281.937,276.663,281.937z"/>
<path d="M383.482,258.056c-11.822-1.334-19.178-2.412-23.469-2.412c-4.289,0-7.133,0.406-7.133,1.555
	c0,0.848,3.529,1.739,11.014,2.548c7.482,0.811,13.152,2.481,16.584,5.96c3.432,3.48,5.148,9.416,5.148,17.803
	c0,8.391-2.6,14.539-7.793,18.447c-5.197,3.91-13.182,5.863-23.953,5.863c-6.006,0-11.727-0.311-17.16-0.93
	c-5.433-0.621-9.343-1.262-11.725-1.93l-3.719-1.002l0.716-21.592c11.82,1.621,19.99,2.604,24.615,2.604
	c4.623,0,6.988-0.489,6.988-1.461c0-0.884-3.529-1.711-11.059-2.713c-7.533-1-13.23-2.742-16.613-6.225
	c-3.385-3.479-5.076-8.938-5.076-16.373c0-9.725,2.789-16.539,8.365-20.449c5.578-3.908,13.464-5.863,23.667-5.863
	c10.867,0,20.162,0.955,27.885,2.861l3.859,0.857L383.482,258.056z"/>
<path d="M370.968,164.569v-27.17c0-10.104-3.242-16.874-9.723-20.306c-6.006-3.24-14.443-4.862-25.311-4.862
	c-10.392,0-21.879,1.669-34.463,5.005l0.715,21.736l4.719-0.429c8.674-0.952,17.35-1.43,26.025-1.43
	c4.004,0,6.006,0.907,6.006,2.717v1.287l-10.294,0.429c-10.489,0.382-18.162,2.026-23.023,4.933
	c-4.862,2.909-7.293,8.652-7.293,17.231c0,8.58,2.145,14.801,6.435,18.662c4.29,3.861,10.654,5.792,19.091,5.792
	s15.609-1.669,21.521-5.005l1.143,1.287c0.764,0.858,2.289,1.693,4.576,2.502c2.289,0.809,4.813,1.215,7.58,1.215
	c2.764,0,7.865-0.572,15.301-1.716l0.428-20.306C372.97,165.762,371.828,165.237,370.968,164.569z M340.455,164.792l-0.57,0.45
	c-2.074,1.637-4.216,2.467-6.364,2.467c-2.952,0-4.646-1.797-4.646-4.932c0-3.063,1.86-4.964,5.103-5.214l6.478-0.38V164.792z"/>
<path d="M229.303,284.224v-27.17c0-10.104-3.242-16.874-9.723-20.307c-6.006-3.239-14.443-4.861-25.311-4.861
	c-10.392,0-21.879,1.669-34.463,5.005l0.715,21.735l4.719-0.429c8.674-0.952,17.35-1.43,26.025-1.43
	c4.004,0,6.006,0.907,6.006,2.717v1.287l-10.294,0.429c-10.489,0.383-18.162,2.027-23.023,4.934
	c-4.862,2.909-7.293,8.652-7.293,17.231c0,8.58,2.145,14.801,6.435,18.661c4.29,3.861,10.654,5.792,19.091,5.792
	s15.609-1.669,21.521-5.005l1.143,1.287c0.764,0.857,2.289,1.693,4.576,2.502c2.289,0.809,4.813,1.216,7.58,1.216
	c2.764,0,7.865-0.571,15.301-1.716l0.428-20.307C231.305,285.417,230.163,284.892,229.303,284.224z M198.79,284.448l-0.57,0.45
	c-2.074,1.637-4.216,2.467-6.364,2.467c-2.952,0-4.646-1.797-4.646-4.932c0-3.063,1.86-4.963,5.103-5.214l6.478-0.38V284.448z"/>
<polyline fill="none" stroke="#000000" stroke-width="28" stroke-miterlimit="10" points="556.659,196.219 556.659,42.302 
	38.753,42.301 38.753,354.518 408.044,354.483 451.05,311.031 "/>
<path fill="none" stroke="#000000" stroke-width="28" stroke-linecap="square" stroke-miterlimit="10" d="M501.361,290.204
	c0,16.274-13.198,29.496-29.483,29.496c-16.286,0-29.484-13.222-29.484-29.496c0-16.273,13.198-29.495,29.484-29.495
	C488.163,260.708,501.361,273.93,501.361,290.204z"/>
<g>
</g>
<g>
</g>
<g>
</g>
<g>
</g>
<g>
</g>
<g>
</g>
</svg>
